<svg xmlns="http://www.w3.org/2000/svg" xmlns:xlink="http://www.w3.org/1999/xlink" width="150" zoomAndPan="magnify" viewBox="0 0 112.5 37.5" height="50" preserveAspectRatio="xMidYMid meet" version="1.0"><defs><g/><clipPath id="3cfefb5ca7"><path d="M 0.492188 0 L 111.511719 0 L 111.511719 37.007812 L 0.492188 37.007812 Z M 0.492188 0 " clip-rule="nonzero"/></clipPath><clipPath id="771633ad51"><path d="M 10 0 L 102 0 L 102 37.007812 L 10 37.007812 Z M 10 0 " clip-rule="nonzero"/></clipPath></defs><g clip-path="url(#3cfefb5ca7)"><path stroke-linecap="butt" transform="matrix(0.265708, -0.0122322, 0.0122322, 0.265708, 8.656219, 8.700585)" fill="none" stroke-linejoin="miter" d="M 36.458334 23.651657 L 32.900721 23.649592 C 29.915921 23.659196 28.681487 22.690889 28.670269 21.337856 C 28.671583 19.07392 31.873998 17.530701 35.108191 17.532577 C 38.768495 17.53937 40.935366 19.32977 40.052791 22.214693 L 59.149953 20.932764 C 60.085132 12.434378 50.086636 6.402304 34.551703 6.628018 C 21.580862 6.721851 11.942251 11.39417 9.376843 19.538183 C 8.759231 24.331768 13.855185 30.196952 31.711572 29.681175 L 35.107137 29.69048 C 38.620739 29.690519 41.397943 30.03889 41.396629 32.302825 C 41.391639 34.007943 39.128603 35.903134 35.379603 35.90696 C 31.674613 35.912812 28.834264 34.062005 29.356651 31.336916 L 9.475892 32.715082 C 9.07214 42.443438 20.131392 46.51027 35.479477 46.511175 C 49.327828 46.516544 60.960044 42.288834 60.954119 34.114654 C 60.959786 26.646669 54.834555 23.659653 36.458334 23.651657 Z M 65.167507 8.375579 L 83.397026 8.376822 C 83.285178 14.957843 83.183836 20.671972 83.191376 27.214385 C 83.192988 31.330815 86.527583 32.983856 89.776447 32.986409 C 92.24644 32.982507 94.511126 31.690144 94.467942 29.115433 C 94.356735 21.950795 93.390907 15.467175 93.217643 8.373185 L 112.329399 8.370939 C 112.06372 15.738747 112.063943 23.39812 112.119658 30.810125 C 112.2288 41.532377 100.439376 46.620225 88.590222 46.618683 C 76.697058 46.615116 64.344692 41.577275 65.418919 31.335838 C 66.191489 23.81495 65.16878 15.373443 65.167507 8.375579 Z M 176.867914 8.372383 L 153.0369 8.377892 L 149.121007 24.780654 C 149.023344 25.305403 148.19052 25.193557 147.834084 24.633201 C 146.289476 19.225532 145.265754 13.680128 144.539976 8.36896 L 117.827528 8.37413 C 118.128657 20.354828 117.042985 33.080253 117.1008 44.917438 L 134.904208 44.913766 C 134.511867 38.427145 134.192389 31.635151 134.186876 25.048727 C 134.190216 22.740782 136.817529 22.83233 136.82143 25.302323 C 138.155177 32.096906 139.34376 38.531976 140.519698 44.922359 L 152.56024 44.91801 L 158.025395 23.602839 C 158.185791 22.99277 159.928841 23.131818 159.929854 25.983912 C 159.932854 32.305596 159.830461 38.681235 159.675465 44.92214 L 178.199064 44.92222 C 178.202144 32.720306 176.752688 20.774952 176.867914 8.372383 Z M 242.494724 8.365122 L 218.649039 8.369956 L 214.747142 24.788063 C 214.650154 25.298143 213.816655 25.200967 213.460218 24.640611 C 211.915611 19.232941 210.892564 13.672868 210.15144 8.375694 L 183.454338 8.366869 C 183.754792 20.362237 182.669795 33.072992 182.726934 44.924847 L 200.530343 44.921175 C 200.123332 38.433879 199.819199 31.62789 199.813686 25.041467 C 199.817026 22.733521 202.443663 22.83974 202.43357 25.294387 C 203.766641 32.10364 204.969894 38.539385 206.146509 44.915099 L 218.186375 44.92542 L 223.651529 23.610249 C 223.812601 22.985509 225.554976 23.139228 225.556664 25.976651 C 225.559664 32.298336 225.456595 38.688644 225.302275 44.914879 L 243.825874 44.914959 C 243.828954 32.713045 242.378823 20.782361 242.494724 8.365122 Z M 288.808144 19.126857 L 288.81839 8.365998 L 249.374551 8.373116 C 250.040409 20.414708 248.041622 33.495031 248.295064 44.914885 L 290.19355 44.917861 L 290.194829 34.671133 L 268.995179 34.68017 C 267.128014 34.68242 266.930624 33.541335 266.924921 33.026528 L 266.930962 30.659902 C 266.932688 29.983723 267.441605 29.786632 267.911726 29.793574 L 287.876379 29.786488 L 287.884485 23.862249 L 267.905162 23.868659 C 267.74379 23.86123 266.934904 23.868096 266.938168 22.839157 L 266.934754 20.677913 C 266.928076 19.545608 267.549814 19.133192 268.623439 19.123812 Z M 336.469608 31.582492 L 324.414396 31.586165 C 323.958945 31.579899 323.338257 31.330806 323.332555 30.815999 C 323.34201 30.610617 323.49614 30.455998 323.658188 30.448757 L 327.362502 30.457575 C 336.771678 30.449698 341.562939 24.730956 341.56294 18.982759 C 341.560053 13.616662 337.243944 8.375429 328.747021 8.366497 L 293.949089 8.366975 C 294.663685 20.307902 293.593659 33.6515 293.736493 44.91925 L 311.863321 44.915766 C 311.302666 38.891837 312.113056 30.549419 312.844726 30.303778 C 311.970406 30.454644 311.495145 28.962638 311.500062 22.78833 C 311.491845 22.008785 312.058467 21.196897 313.190772 21.190219 L 319.850547 21.188082 C 322.820001 21.192473 324.78603 23.194146 324.787905 25.70815 C 324.789105 28.236824 322.829416 30.24889 320.198051 30.245362 L 313.655638 30.252902 C 316.287077 34.725619 318.039956 39.760643 319.742746 44.925673 L 343.52975 44.918138 Z M 312.844726 30.303778 C 312.888737 30.305804 312.888737 30.305804 312.888737 30.305804 Z M 312.844726 30.303778 " stroke="#690087" stroke-width="13.515731" stroke-opacity="1" stroke-miterlimit="4"/></g><g clip-path="url(#771633ad51)"><path stroke-linecap="butt" transform="matrix(0.265708, -0.0122322, 0.0122322, 0.265708, 8.656219, 8.700585)" fill="none" stroke-linejoin="miter" d="M 122.462126 65.775435 L 122.459991 53.367463 L 82.722073 53.375744 C 83.121654 65.77261 81.687462 78.085056 81.848643 89.912298 L 101.459861 89.918345 C 101.144209 86.875351 100.943704 84.205191 100.950984 80.853636 C 100.947307 80.294818 101.294852 80.090299 101.720963 80.095214 L 121.788307 80.092856 L 121.782081 71.286508 L 101.715412 71.274196 C 100.994547 71.285114 100.584645 70.928114 100.589073 70.193254 L 100.587685 67.988 C 100.584196 67.105763 100.998413 65.772315 102.953599 65.774116 Z M 167.611765 64.134526 L 167.607341 53.372991 L 128.164177 53.365439 C 128.830035 65.407031 126.831247 78.487354 127.084014 89.921878 L 168.982501 89.924854 L 168.983779 79.678127 L 147.784805 79.672493 C 145.91764 79.674744 145.719574 78.548329 145.728542 78.034197 L 145.720588 75.652225 C 145.721639 74.990716 146.245225 74.794301 146.701352 74.785897 L 166.679999 74.794156 L 166.673435 68.869242 L 146.709458 68.861657 C 146.54741 68.868899 145.724529 68.860419 145.727794 67.83148 L 145.72438 65.670236 C 145.717702 64.537931 146.33944 64.125515 147.42706 64.131481 Z M 199.158206 68.659366 L 195.600593 68.657301 C 192.616468 68.652235 191.367364 67.683253 191.370141 66.345565 C 191.371455 64.08163 194.559199 62.537735 197.808738 62.525617 C 201.469042 62.532409 203.620568 64.336804 202.752663 67.222402 L 221.8505 65.925803 C 222.785679 57.427417 212.786508 51.410013 197.23758 51.620382 C 184.266063 51.728885 174.642123 56.401879 172.062045 64.545217 C 171.444433 69.338802 176.555057 75.204662 194.411444 74.688884 L 197.807684 74.68352 C 201.306616 74.682883 204.09849 75.031929 204.097177 77.295864 C 204.091511 79.015652 201.828475 80.910844 198.064805 80.913994 C 194.36049 80.905176 191.534811 79.055044 192.057198 76.329955 L 172.161093 77.722116 C 171.772687 87.436477 182.831264 91.517979 198.164679 91.518209 C 212.028375 91.509583 223.645246 87.295868 223.654666 79.107693 C 223.645663 71.639033 217.520432 68.652017 199.158206 68.659366 Z M 270.898846 53.364916 L 226.927136 53.369406 L 226.939702 66.189493 L 238.421426 66.188821 C 239.759114 66.191598 239.857002 67.578023 239.858953 68.81302 C 239.855499 75.913575 239.445145 83.230619 238.769752 89.918007 L 258.190257 89.915274 C 258.334147 83.276923 257.770079 75.09175 257.770343 67.741126 C 257.776797 66.962256 258.032643 66.194867 259.517709 66.189727 L 270.896741 66.184327 Z M 270.898846 53.364916 " stroke="#690087" stroke-width="13.515731" stroke-opacity="1" stroke-miterlimit="4"/></g><g fill="#f6c449" fill-opacity="1"><g transform="translate(11.244925, 20.829897)"><g><path d="M 7.386719 -6.289062 L 6.441406 -6.246094 C 5.648438 -6.210938 5.308594 -6.453125 5.292969 -6.808594 C 5.265625 -7.410156 6.09375 -7.859375 6.957031 -7.902344 C 7.925781 -7.945312 8.523438 -7.492188 8.328125 -6.714844 L 13.386719 -7.292969 C 13.527344 -9.558594 10.800781 -11.039062 6.671875 -10.792969 C 3.226562 -10.609375 0.726562 -9.246094 0.140625 -7.050781 C 0.0351562 -5.773438 1.460938 -4.277344 6.203125 -4.628906 L 7.105469 -4.671875 C 8.035156 -4.714844 8.777344 -4.652344 8.804688 -4.050781 C 8.828125 -3.601562 8.246094 -3.066406 7.25 -3.019531 C 6.265625 -2.976562 5.488281 -3.433594 5.59375 -4.164062 L 0.328125 -3.550781 C 0.339844 -0.960938 3.332031 -0.015625 7.40625 -0.203125 C 11.085938 -0.375 14.125 -1.636719 14.027344 -3.8125 C 13.933594 -5.796875 12.269531 -6.515625 7.386719 -6.289062 Z M 7.386719 -6.289062 "/></g></g></g><g fill="#f6c449" fill-opacity="1"><g transform="translate(25.823247, 20.158768)"><g><path d="M 0.25 -10.03125 L 5.09375 -10.253906 C 5.144531 -8.503906 5.1875 -6.984375 5.269531 -5.246094 C 5.320312 -4.152344 6.230469 -3.753906 7.089844 -3.792969 C 7.746094 -3.824219 8.332031 -4.195312 8.289062 -4.878906 C 8.171875 -6.777344 7.832031 -8.488281 7.707031 -10.375 L 12.78125 -10.609375 C 12.800781 -8.648438 12.894531 -6.613281 13 -4.640625 C 13.160156 -1.796875 10.089844 -0.300781 6.941406 -0.15625 C 3.78125 -0.0078125 0.4375 -1.199219 0.601562 -3.933594 C 0.714844 -5.941406 0.335938 -8.171875 0.25 -10.03125 Z M 0.25 -10.03125 "/></g></g></g><g fill="#f6c449" fill-opacity="1"><g transform="translate(39.73146, 19.518489)"><g><path d="M 16.023438 -10.757812 L 9.6875 -10.464844 L 8.851562 -6.054688 C 8.828125 -5.917969 8.609375 -5.933594 8.507812 -6.082031 C 8.03125 -7.496094 7.6875 -8.960938 7.433594 -10.363281 L 0.332031 -10.035156 C 0.5625 -6.851562 0.429688 -3.460938 0.589844 -0.316406 L 5.320312 -0.53125 C 5.132812 -2.25 4.96875 -4.054688 4.886719 -5.804688 C 4.859375 -6.417969 5.558594 -6.425781 5.585938 -5.769531 C 6.027344 -3.976562 6.417969 -2.28125 6.8125 -0.601562 L 10.011719 -0.75 L 11.203125 -6.480469 C 11.234375 -6.644531 11.703125 -6.625 11.738281 -5.871094 C 11.816406 -4.191406 11.867188 -2.492188 11.902344 -0.835938 L 16.824219 -1.0625 C 16.675781 -4.304688 16.148438 -7.460938 16.023438 -10.757812 Z M 16.023438 -10.757812 "/></g></g></g><g fill="#f6c449" fill-opacity="1"><g transform="translate(57.168002, 18.715779)"><g><path d="M 16.023438 -10.757812 L 9.6875 -10.464844 L 8.851562 -6.054688 C 8.828125 -5.917969 8.609375 -5.933594 8.507812 -6.082031 C 8.03125 -7.496094 7.6875 -8.960938 7.433594 -10.363281 L 0.332031 -10.035156 C 0.5625 -6.851562 0.429688 -3.460938 0.589844 -0.316406 L 5.320312 -0.53125 C 5.132812 -2.25 4.96875 -4.054688 4.886719 -5.804688 C 4.859375 -6.417969 5.558594 -6.425781 5.585938 -5.769531 C 6.027344 -3.976562 6.417969 -2.28125 6.8125 -0.601562 L 10.011719 -0.75 L 11.203125 -6.480469 C 11.234375 -6.644531 11.703125 -6.625 11.738281 -5.871094 C 11.816406 -4.191406 11.867188 -2.492188 11.902344 -0.835938 L 16.824219 -1.0625 C 16.675781 -4.304688 16.148438 -7.460938 16.023438 -10.757812 Z M 16.023438 -10.757812 "/></g></g></g><g fill="#f6c449" fill-opacity="1"><g transform="translate(74.604546, 17.913069)"><g><path d="M 11.023438 -7.664062 L 10.894531 -10.523438 L 0.414062 -10.039062 C 0.742188 -6.847656 0.367188 -3.347656 0.574219 -0.3125 L 11.710938 -0.828125 L 11.585938 -3.550781 L 5.949219 -3.289062 C 5.457031 -3.265625 5.386719 -3.566406 5.382812 -3.703125 L 5.351562 -4.332031 C 5.34375 -4.507812 5.476562 -4.570312 5.601562 -4.574219 L 10.910156 -4.820312 L 10.835938 -6.394531 L 5.527344 -6.148438 C 5.488281 -6.148438 5.269531 -6.136719 5.257812 -6.410156 L 5.230469 -6.984375 C 5.214844 -7.285156 5.375 -7.402344 5.664062 -7.417969 Z M 11.023438 -7.664062 "/></g></g></g><g fill="#f6c449" fill-opacity="1"><g transform="translate(86.680218, 17.357152)"><g><path d="M 11.765625 -4.378906 L 8.5625 -4.230469 C 8.441406 -4.226562 8.273438 -4.289062 8.269531 -4.425781 C 8.265625 -4.480469 8.304688 -4.523438 8.34375 -4.523438 L 9.332031 -4.570312 C 11.832031 -4.683594 13.035156 -6.261719 12.964844 -7.792969 C 12.898438 -9.214844 11.6875 -10.558594 9.429688 -10.453125 L 0.183594 -10.027344 C 0.519531 -6.863281 0.394531 -3.308594 0.574219 -0.3125 L 5.390625 -0.535156 C 5.164062 -2.128906 5.28125 -4.355469 5.472656 -4.433594 C 5.242188 -4.382812 5.097656 -4.773438 5.023438 -6.414062 C 5.015625 -6.617188 5.152344 -6.84375 5.457031 -6.859375 L 7.21875 -6.941406 C 8.011719 -6.976562 8.558594 -6.464844 8.589844 -5.796875 C 8.621094 -5.125 8.125 -4.570312 7.425781 -4.535156 L 5.6875 -4.457031 C 6.441406 -3.296875 6.96875 -1.980469 7.484375 -0.632812 L 13.800781 -0.921875 Z M 5.472656 -4.433594 C 5.484375 -4.433594 5.484375 -4.433594 5.484375 -4.433594 Z M 5.472656 -4.433594 "/></g></g></g><g fill="#f6c449" fill-opacity="1"><g transform="translate(30.955433, 31.904717)"><g><path d="M 11.042969 -7.226562 L 10.894531 -10.523438 L 0.332031 -10.035156 C 0.59375 -6.742188 0.363281 -3.457031 0.546875 -0.3125 L 5.757812 -0.554688 C 5.640625 -1.355469 5.550781 -2.066406 5.511719 -2.953125 C 5.503906 -3.105469 5.597656 -3.164062 5.707031 -3.167969 L 11.042969 -3.414062 L 10.933594 -5.753906 L 5.601562 -5.507812 C 5.40625 -5.5 5.292969 -5.589844 5.285156 -5.78125 L 5.257812 -6.371094 C 5.246094 -6.601562 5.339844 -6.960938 5.859375 -6.988281 Z M 11.042969 -7.226562 "/></g></g></g><g fill="#f6c449" fill-opacity="1"><g transform="translate(42.949051, 31.352578)"><g><path d="M 11.023438 -7.664062 L 10.894531 -10.523438 L 0.414062 -10.039062 C 0.742188 -6.847656 0.367188 -3.347656 0.574219 -0.3125 L 11.710938 -0.828125 L 11.585938 -3.550781 L 5.949219 -3.289062 C 5.457031 -3.265625 5.386719 -3.566406 5.382812 -3.703125 L 5.351562 -4.332031 C 5.34375 -4.507812 5.476562 -4.570312 5.601562 -4.574219 L 10.910156 -4.820312 L 10.835938 -6.394531 L 5.527344 -6.148438 C 5.488281 -6.148438 5.269531 -6.136719 5.257812 -6.410156 L 5.230469 -6.984375 C 5.214844 -7.285156 5.375 -7.402344 5.664062 -7.417969 Z M 11.023438 -7.664062 "/></g></g></g><g fill="#f6c449" fill-opacity="1"><g transform="translate(55.024721, 30.796661)"><g><path d="M 7.386719 -6.289062 L 6.441406 -6.246094 C 5.648438 -6.210938 5.308594 -6.453125 5.292969 -6.808594 C 5.265625 -7.410156 6.09375 -7.859375 6.957031 -7.902344 C 7.925781 -7.945312 8.523438 -7.492188 8.328125 -6.714844 L 13.386719 -7.292969 C 13.527344 -9.558594 10.800781 -11.039062 6.671875 -10.792969 C 3.226562 -10.609375 0.726562 -9.246094 0.140625 -7.050781 C 0.0351562 -5.773438 1.460938 -4.277344 6.203125 -4.628906 L 7.105469 -4.671875 C 8.035156 -4.714844 8.777344 -4.652344 8.804688 -4.050781 C 8.828125 -3.601562 8.246094 -3.066406 7.25 -3.019531 C 6.265625 -2.976562 5.488281 -3.433594 5.59375 -4.164062 L 0.328125 -3.550781 C 0.339844 -0.960938 3.332031 -0.015625 7.40625 -0.203125 C 11.085938 -0.375 14.125 -1.636719 14.027344 -3.8125 C 13.933594 -5.796875 12.269531 -6.515625 7.386719 -6.289062 Z M 7.386719 -6.289062 "/></g></g></g><g fill="#f6c449" fill-opacity="1"><g transform="translate(69.603042, 30.125533)"><g><path d="M 11.6875 -10.558594 L 0.00390625 -10.019531 L 0.160156 -6.613281 L 3.210938 -6.753906 C 3.566406 -6.769531 3.613281 -6.402344 3.628906 -6.074219 C 3.714844 -4.1875 3.695312 -2.238281 3.597656 -0.453125 L 8.753906 -0.691406 C 8.714844 -2.457031 8.464844 -4.625 8.375 -6.582031 C 8.363281 -6.785156 8.421875 -6.996094 8.820312 -7.011719 L 11.84375 -7.152344 Z M 11.6875 -10.558594 "/></g></g></g></svg>