<svg xmlns="http://www.w3.org/2000/svg" xmlns:xlink="http://www.w3.org/1999/xlink" width="500" zoomAndPan="magnify" viewBox="0 0 375 374.999991" height="500" preserveAspectRatio="xMidYMid meet" version="1.0"><defs><g/></defs><path stroke-linecap="butt" transform="matrix(1.039222, -0.0478417, 0.0478417, 1.039222, 2.319092, 149.160693)" fill="none" stroke-linejoin="miter" d="M 36.45545 23.651822 L 32.899527 23.653509 C 29.92262 23.651782 28.677858 22.684843 28.675911 21.339095 C 28.678415 19.080158 31.869516 17.531836 35.113254 17.53457 C 38.770623 17.533794 40.932017 19.328525 40.050907 22.219843 L 59.156385 20.926786 C 60.085078 12.429496 50.093081 6.410206 34.548074 6.623004 C 21.575446 6.724936 11.94825 11.397494 9.370525 19.544475 C 8.755486 24.331212 13.860393 30.200696 31.719756 29.68473 L 35.110123 29.686698 C 38.617112 29.686516 41.397401 30.040039 41.394896 32.298976 C 41.395097 34.009249 39.135057 35.908658 35.376241 35.908522 C 31.670111 35.907054 28.842097 34.059081 29.354835 31.331228 L 9.470807 32.716244 C 9.071821 42.444502 20.130735 46.516974 35.478011 46.516844 C 49.32558 46.515332 60.954342 42.292006 60.951418 34.108916 C 60.953022 26.64397 54.832318 23.652086 36.45545 23.651822 Z M 65.169661 8.370995 L 83.392398 8.371682 C 83.292245 14.956286 83.190547 20.67629 83.190507 27.20912 C 83.192377 31.332634 86.533368 32.978692 89.777278 32.977677 C 92.23928 32.978253 94.51653 31.684807 94.465505 29.118941 C 94.351676 21.956904 93.383598 15.469717 93.221823 8.369372 L 112.324164 8.369205 C 112.060219 15.735621 112.060543 23.403633 112.125121 30.819003 C 112.222401 41.524847 100.433378 46.616601 88.596843 46.616722 C 76.692619 46.617486 64.340181 41.57583 65.420608 31.333915 C 66.198863 23.818269 65.166963 15.369798 65.169661 8.370995 Z M 176.870561 8.371199 L 153.028355 8.371173 L 149.122935 24.782823 C 149.020164 25.300568 148.190406 25.198469 147.840529 24.633574 C 146.292639 19.228547 145.26281 13.674464 144.533425 8.371017 L 117.82701 8.370693 C 118.128314 20.360171 117.046621 33.079092 117.095503 44.917872 L 134.904781 44.918319 C 134.50412 38.4347 134.189404 31.635538 134.191862 25.050195 C 134.189454 22.73465 136.815929 22.836769 136.815352 25.298771 C 138.148627 32.099717 139.344694 38.5335 140.52425 44.917658 L 152.563678 44.91936 L 158.033032 23.603027 C 158.181724 22.985908 159.930101 23.137814 159.930839 25.979517 C 159.929216 32.301781 159.830885 38.683493 159.679103 44.919908 L 178.2026 44.919405 C 178.204398 32.714593 176.758166 20.773896 176.870561 8.371199 Z M 242.495877 8.370239 L 218.653671 8.370213 L 214.744327 24.785441 C 214.64548 25.299608 213.815549 25.20126 213.462094 24.632441 C 211.917782 19.231338 210.884375 13.673331 210.15499 8.369884 L 183.448575 8.36956 C 183.749879 20.359038 182.668185 33.077959 182.720646 44.920663 L 200.530097 44.917358 C 200.125685 38.433567 199.81472 31.634578 199.813426 25.049062 C 199.814597 22.737441 202.441244 22.835808 202.440495 25.301561 C 203.770192 32.098584 204.966086 38.536118 206.145642 44.920276 L 218.188994 44.918399 L 223.654597 23.601894 C 223.806867 22.988698 225.551666 23.136681 225.552403 25.978384 C 225.554531 32.300821 225.452278 38.68611 225.300668 44.918775 L 243.827916 44.918445 C 243.825962 32.71346 242.383309 20.776686 242.495877 8.370239 Z M 288.812954 19.128992 L 288.812036 8.371201 L 249.374479 8.371162 C 250.038063 20.411146 248.041262 33.493892 248.29345 44.917285 L 290.19676 44.918074 L 290.194691 34.675189 L 268.991123 34.676353 C 267.13422 34.677322 266.930791 33.544069 266.931942 33.029163 L 266.932298 30.653604 C 266.932854 29.988318 267.445832 29.786405 267.911976 29.785311 L 287.882495 29.787523 L 287.884396 23.867466 L 267.909954 23.868832 C 267.748321 23.868909 266.932655 23.868947 266.931379 22.835212 L 266.933145 20.673971 C 266.932608 19.542541 267.545621 19.127221 268.628117 19.12819 Z M 336.472747 31.584646 L 324.418315 31.582254 C 323.952171 31.583347 323.339714 31.333382 323.337115 30.818303 C 323.339455 30.604158 323.500494 30.453701 323.650874 30.453106 L 327.360755 30.454748 C 336.772971 30.452026 341.561849 24.733549 341.563654 18.978875 C 341.562159 13.622485 337.236924 8.371512 328.741994 8.371356 L 293.954108 8.371116 C 294.671117 20.312072 293.587533 33.643594 293.741258 44.919619 L 311.862549 44.919394 C 311.297771 38.898073 312.114187 30.553485 312.843727 30.301399 C 311.964718 30.452633 311.499783 28.957771 311.49825 22.785715 C 311.500236 22.00773 312.064037 21.191709 313.195468 21.191173 L 319.844921 21.189064 C 322.821828 21.190792 324.782258 23.186765 324.782324 25.716455 C 324.782564 28.242394 322.821854 30.253312 320.194469 30.25264 L 313.661638 30.2526 C 316.286087 34.726135 318.035038 39.764536 319.744878 44.91766 L 343.523147 44.918501 Z M 312.843727 30.301399 C 312.892489 30.303644 312.892489 30.303644 312.892489 30.303644 Z M 312.843727 30.301399 " stroke="#690087" stroke-width="13.515731" stroke-opacity="1" stroke-miterlimit="4"/><path stroke-linecap="butt" transform="matrix(1.039222, -0.0478417, 0.0478417, 1.039222, 2.319092, 149.160693)" fill="none" stroke-linejoin="miter" d="M 122.465193 65.774692 L 122.46864 53.370739 L 82.726572 53.371716 C 83.129082 65.775564 81.694355 78.079798 81.844684 89.91949 L 101.465681 89.920646 C 101.151002 86.876549 100.950854 84.20233 100.95075 80.856974 C 100.950395 80.293134 101.301739 80.091297 101.715199 80.091537 L 121.787336 80.09091 L 121.786994 71.280215 L 101.714856 71.280843 C 101.000636 71.281792 100.584654 70.928107 100.584395 70.198884 L 100.584654 67.988708 C 100.583801 67.109105 100.998546 65.775022 102.949393 65.77462 Z M 167.605526 64.127784 L 167.604608 53.369993 L 128.167051 53.369954 C 128.830635 65.409939 126.833834 78.492684 127.085849 89.919828 L 168.989159 89.920617 L 168.98709 79.677732 L 147.783695 79.675146 C 145.923041 79.675941 145.72319 78.546612 145.724514 78.027956 L 145.72487 75.652396 C 145.725426 74.987111 146.238404 74.785197 146.704375 74.787854 L 166.675067 74.786315 L 166.673217 68.866086 L 146.702525 68.867625 C 146.540893 68.867701 145.725227 68.867739 145.723778 67.837755 L 145.721793 65.676342 C 145.725007 64.545084 146.338021 64.129764 147.420517 64.130733 Z M 199.151649 68.65476 L 195.595899 68.652697 C 192.615068 68.654547 191.370479 67.683858 191.37211 66.342033 C 191.371036 64.079173 194.565888 62.531023 197.805874 62.533585 C 201.463244 62.532809 203.624465 64.331291 202.747278 67.219031 L 221.849005 65.9258 C 222.78145 57.428683 212.789453 51.409393 197.240695 51.622018 C 184.271817 51.724123 174.644448 56.400432 172.066896 64.543662 C 171.451857 69.330399 176.553014 75.19971 194.412204 74.687496 L 197.806494 74.685885 C 201.313484 74.685704 204.090021 75.039054 204.091095 77.301914 C 204.091469 79.008436 201.827678 80.907672 198.068862 80.907537 C 194.362731 80.906068 191.534545 79.061847 192.051034 76.334166 L 172.167178 77.715432 C 171.764441 87.443516 182.827106 91.516161 198.170631 91.515859 C 212.021952 91.514519 223.646962 87.291021 223.647617 79.111855 C 223.645643 71.642985 217.524766 68.654852 199.151649 68.65476 Z M 270.897021 53.370262 L 226.933916 53.368619 L 226.933807 66.189955 L 238.420821 66.188779 C 239.751393 66.189892 239.853059 67.57406 239.852167 68.818189 C 239.852309 75.91861 239.451654 83.233627 238.771746 89.919341 L 258.189851 89.918675 C 258.341183 83.283803 257.774938 75.089816 257.775112 67.737568 C 257.777271 66.955833 258.026815 66.189244 259.52277 66.190454 L 270.896912 66.191598 Z M 270.897021 53.370262 " stroke="#690087" stroke-width="13.515731" stroke-opacity="1" stroke-miterlimit="4"/><g fill="#f6c449" fill-opacity="1"><g transform="translate(12.443877, 196.600107)"><g><path d="M 28.890625 -24.597656 L 25.199219 -24.429688 C 22.097656 -24.285156 20.765625 -25.242188 20.703125 -26.632812 C 20.59375 -28.988281 23.835938 -30.746094 27.207031 -30.898438 C 31.003906 -31.074219 33.339844 -29.304688 32.566406 -26.269531 L 52.351562 -28.519531 C 52.910156 -37.390625 42.242188 -43.171875 26.097656 -42.214844 C 12.617188 -41.488281 2.839844 -36.160156 0.554688 -27.582031 C 0.140625 -22.578125 5.71875 -16.722656 24.257812 -18.113281 L 27.789062 -18.273438 C 31.425781 -18.441406 34.332031 -18.199219 34.441406 -15.847656 C 34.523438 -14.082031 32.257812 -11.992188 28.351562 -11.8125 C 24.5 -11.636719 21.46875 -13.425781 21.875 -16.285156 L 1.289062 -13.890625 C 1.328125 -3.761719 13.023438 -0.0625 28.96875 -0.796875 C 43.359375 -1.460938 55.246094 -6.402344 54.855469 -14.910156 C 54.5 -22.667969 47.988281 -25.476562 28.890625 -24.597656 Z M 28.890625 -24.597656 "/></g></g></g><g fill="#f6c449" fill-opacity="1"><g transform="translate(69.461708, 193.97523)"><g><path d="M 0.980469 -39.234375 L 19.921875 -40.109375 C 20.128906 -33.253906 20.292969 -27.3125 20.609375 -20.515625 C 20.804688 -16.238281 24.359375 -14.683594 27.730469 -14.839844 C 30.300781 -14.957031 32.589844 -16.40625 32.414062 -19.078125 C 31.964844 -26.507812 30.640625 -33.203125 30.136719 -40.578125 L 49.988281 -41.492188 C 50.070312 -33.828125 50.4375 -25.859375 50.847656 -18.15625 C 51.464844 -7.035156 39.457031 -1.171875 27.152344 -0.605469 C 14.796875 -0.0390625 1.714844 -4.691406 2.347656 -15.386719 C 2.789062 -23.234375 1.316406 -31.960938 0.980469 -39.234375 Z M 0.980469 -39.234375 "/></g></g></g><g fill="#f6c449" fill-opacity="1"><g transform="translate(123.858649, 191.471008)"><g><path d="M 62.667969 -42.074219 L 37.894531 -40.933594 L 34.617188 -23.683594 C 34.535156 -23.140625 33.671875 -23.210938 33.269531 -23.78125 C 31.40625 -29.324219 30.070312 -35.054688 29.070312 -40.527344 L 1.300781 -39.25 C 2.199219 -26.800781 1.683594 -13.535156 2.300781 -1.230469 L 20.8125 -2.085938 C 20.074219 -8.804688 19.429688 -15.851562 19.113281 -22.699219 C 19.003906 -25.109375 21.734375 -25.125 21.855469 -22.558594 C 23.570312 -15.558594 25.109375 -8.929688 26.644531 -2.351562 L 39.164062 -2.929688 L 43.8125 -25.339844 C 43.945312 -25.988281 45.773438 -25.910156 45.90625 -22.96875 C 46.210938 -16.386719 46.410156 -9.75 46.546875 -3.269531 L 65.804688 -4.15625 C 65.222656 -16.835938 63.152344 -29.175781 62.667969 -42.074219 Z M 62.667969 -42.074219 "/></g></g></g><g fill="#f6c449" fill-opacity="1"><g transform="translate(192.055374, 188.331498)"><g><path d="M 62.667969 -42.074219 L 37.894531 -40.933594 L 34.617188 -23.683594 C 34.535156 -23.140625 33.671875 -23.210938 33.269531 -23.78125 C 31.40625 -29.324219 30.070312 -35.054688 29.070312 -40.527344 L 1.300781 -39.25 C 2.199219 -26.800781 1.683594 -13.535156 2.300781 -1.230469 L 20.8125 -2.085938 C 20.074219 -8.804688 19.429688 -15.851562 19.113281 -22.699219 C 19.003906 -25.109375 21.734375 -25.125 21.855469 -22.558594 C 23.570312 -15.558594 25.109375 -8.929688 26.644531 -2.351562 L 39.164062 -2.929688 L 43.8125 -25.339844 C 43.945312 -25.988281 45.773438 -25.910156 45.90625 -22.96875 C 46.210938 -16.386719 46.410156 -9.75 46.546875 -3.269531 L 65.804688 -4.15625 C 65.222656 -16.835938 63.152344 -29.175781 62.667969 -42.074219 Z M 62.667969 -42.074219 "/></g></g></g><g fill="#f6c449" fill-opacity="1"><g transform="translate(260.252106, 185.191987)"><g><path d="M 43.117188 -29.972656 L 42.605469 -41.152344 L 1.625 -39.265625 C 2.894531 -26.777344 1.433594 -13.09375 2.25 -1.230469 L 45.796875 -3.234375 L 45.308594 -13.878906 L 23.265625 -12.867188 C 21.339844 -12.777344 21.070312 -13.945312 21.046875 -14.480469 L 20.933594 -16.941406 C 20.902344 -17.636719 21.425781 -17.875 21.90625 -17.898438 L 42.664062 -18.851562 L 42.382812 -25.003906 L 21.625 -24.050781 C 21.464844 -24.042969 20.609375 -24.003906 20.558594 -25.070312 L 20.457031 -27.320312 C 20.402344 -28.496094 21.023438 -28.953125 22.148438 -29.003906 Z M 43.117188 -29.972656 "/></g></g></g><g fill="#f6c449" fill-opacity="1"><g transform="translate(307.481725, 183.017721)"><g><path d="M 46.015625 -17.128906 L 33.496094 -16.554688 C 33.015625 -16.53125 32.359375 -16.769531 32.335938 -17.304688 C 32.324219 -17.519531 32.480469 -17.6875 32.640625 -17.695312 L 36.492188 -17.871094 C 46.28125 -18.320312 50.984375 -24.488281 50.707031 -30.480469 C 50.453125 -36.042969 45.707031 -41.296875 36.878906 -40.886719 L 0.714844 -39.222656 C 2.035156 -26.847656 1.550781 -12.9375 2.25 -1.230469 L 21.082031 -2.097656 C 20.203125 -8.328125 20.660156 -17.035156 21.398438 -17.335938 C 20.496094 -17.132812 19.941406 -18.664062 19.648438 -25.082031 C 19.609375 -25.886719 20.160156 -26.769531 21.335938 -26.824219 L 28.238281 -27.140625 C 31.339844 -27.285156 33.46875 -25.292969 33.589844 -22.667969 C 33.710938 -20.046875 31.773438 -17.867188 29.046875 -17.742188 L 22.25 -17.429688 C 25.195312 -12.902344 27.253906 -7.742188 29.265625 -2.472656 L 53.980469 -3.609375 Z M 21.398438 -17.335938 C 21.449219 -17.339844 21.449219 -17.339844 21.449219 -17.339844 Z M 21.398438 -17.335938 "/></g></g></g><g fill="#f6c449" fill-opacity="1"><g transform="translate(89.534395, 239.915257)"><g><path d="M 43.199219 -28.257812 L 42.605469 -41.152344 L 1.300781 -39.25 C 2.324219 -26.378906 1.414062 -13.523438 2.140625 -1.222656 L 22.523438 -2.164062 C 22.058594 -5.304688 21.714844 -8.078125 21.554688 -11.554688 C 21.53125 -12.140625 21.894531 -12.375 22.320312 -12.394531 L 43.1875 -13.355469 L 42.765625 -22.503906 L 21.902344 -21.542969 C 21.152344 -21.507812 20.707031 -21.863281 20.671875 -22.609375 L 20.566406 -24.910156 C 20.523438 -25.820312 20.886719 -27.230469 22.921875 -27.324219 Z M 43.199219 -28.257812 "/></g></g></g><g fill="#f6c449" fill-opacity="1"><g transform="translate(136.443091, 237.755765)"><g><path d="M 43.117188 -29.972656 L 42.605469 -41.152344 L 1.625 -39.265625 C 2.894531 -26.777344 1.433594 -13.09375 2.25 -1.230469 L 45.796875 -3.234375 L 45.308594 -13.878906 L 23.265625 -12.867188 C 21.339844 -12.777344 21.070312 -13.945312 21.046875 -14.480469 L 20.933594 -16.941406 C 20.902344 -17.636719 21.425781 -17.875 21.90625 -17.898438 L 42.664062 -18.851562 L 42.382812 -25.003906 L 21.625 -24.050781 C 21.464844 -24.042969 20.609375 -24.003906 20.558594 -25.070312 L 20.457031 -27.320312 C 20.402344 -28.496094 21.023438 -28.953125 22.148438 -29.003906 Z M 43.117188 -29.972656 "/></g></g></g><g fill="#f6c449" fill-opacity="1"><g transform="translate(183.672706, 235.581498)"><g><path d="M 28.890625 -24.597656 L 25.199219 -24.429688 C 22.097656 -24.285156 20.765625 -25.242188 20.703125 -26.632812 C 20.59375 -28.988281 23.835938 -30.746094 27.207031 -30.898438 C 31.003906 -31.074219 33.339844 -29.304688 32.566406 -26.269531 L 52.351562 -28.519531 C 52.910156 -37.390625 42.242188 -43.171875 26.097656 -42.214844 C 12.617188 -41.488281 2.839844 -36.160156 0.554688 -27.582031 C 0.140625 -22.578125 5.71875 -16.722656 24.257812 -18.113281 L 27.789062 -18.273438 C 31.425781 -18.441406 34.332031 -18.199219 34.441406 -15.847656 C 34.523438 -14.082031 32.257812 -11.992188 28.351562 -11.8125 C 24.5 -11.636719 21.46875 -13.425781 21.875 -16.285156 L 1.289062 -13.890625 C 1.328125 -3.761719 13.023438 -0.0625 28.96875 -0.796875 C 43.359375 -1.460938 55.246094 -6.402344 54.855469 -14.910156 C 54.5 -22.667969 47.988281 -25.476562 28.890625 -24.597656 Z M 28.890625 -24.597656 "/></g></g></g><g fill="#f6c449" fill-opacity="1"><g transform="translate(240.690533, 232.956621)"><g><path d="M 45.707031 -41.296875 L 0.0195312 -39.191406 L 0.632812 -25.871094 L 12.5625 -26.417969 C 13.953125 -26.484375 14.125 -25.042969 14.1875 -23.761719 C 14.527344 -16.378906 14.449219 -8.761719 14.070312 -1.773438 L 34.242188 -2.703125 C 34.085938 -9.609375 33.105469 -18.089844 32.75 -25.742188 C 32.714844 -26.542969 32.945312 -27.359375 34.496094 -27.429688 L 46.320312 -27.972656 Z M 45.707031 -41.296875 "/></g></g></g></svg>